<?xml version="1.0" standalone="no"?>
<!DOCTYPE svg PUBLIC "-//W3C//DTD SVG 20010904//EN"
 "http://www.w3.org/TR/2001/REC-SVG-20010904/DTD/svg10.dtd">
<svg version="1.0" xmlns="http://www.w3.org/2000/svg"
 width="1024.000000pt" height="1024.000000pt" viewBox="0 0 1024.000000 1024.000000"
 preserveAspectRatio="xMidYMid meet">

<g transform="translate(0.000000,1024.000000) scale(0.100000,-0.100000)"
fill="#000000" stroke="none">
<path d="M4928 8550 c-76 -12 -197 -54 -283 -98 -51 -27 -95 -62 -165 -132
-90 -91 -97 -96 -125 -88 -47 14 -235 12 -295 -2 -81 -18 -228 -91 -282 -139
-54 -48 -128 -162 -153 -236 -26 -74 -31 -235 -11 -315 26 -107 91 -224 166
-299 93 -94 228 -161 328 -161 l32 0 0 -479 c0 -264 3 -486 6 -495 6 -14 92
-16 874 -16 684 0 869 3 872 12 3 7 3 161 1 343 -2 181 0 398 4 480 l8 150 50
6 c280 36 501 318 482 614 -16 259 -184 463 -437 530 -63 17 -223 20 -298 5
l-51 -9 -103 102 c-90 90 -115 109 -198 149 -144 70 -295 97 -422 78z m278
-131 c150 -45 291 -164 359 -303 69 -139 82 -359 31 -508 -28 -79 -111 -195
-185 -258 -101 -87 -268 -150 -397 -150 -189 0 -356 81 -480 231 -91 110 -124
215 -124 389 0 210 45 338 155 446 90 88 230 154 380 177 57 10 193 -3 261
-24z m-917 -290 c28 -6 53 -15 57 -20 3 -5 -7 -51 -22 -102 -59 -201 -17 -457
101 -612 19 -25 35 -51 35 -59 0 -22 -69 -76 -140 -110 -60 -29 -73 -31 -170
-31 -98 0 -109 2 -166 31 -132 67 -204 150 -249 287 -25 78 -27 96 -23 196 4
98 8 116 37 175 91 185 325 291 540 245z m1668 1 c145 -34 296 -162 337 -288
82 -247 -11 -499 -224 -612 -139 -73 -338 -44 -460 67 -46 41 -49 57 -16 92
39 41 102 169 127 256 32 109 32 265 0 384 -12 46 -20 85 -18 87 20 21 186 30
254 14z m-317 -997 c36 -16 81 -35 101 -42 29 -9 38 -18 43 -43 3 -17 6 -216
6 -442 l0 -411 -773 3 -773 2 3 443 3 442 67 23 c37 12 109 43 161 68 l93 45
55 -31 c104 -60 217 -92 339 -97 170 -7 323 35 455 126 l55 37 50 -46 c28 -25
79 -60 115 -77z"/>
<path d="M7436 8144 c-13 -12 -16 -40 -16 -144 0 -139 7 -160 54 -160 47 0 56
26 56 159 0 67 -5 131 -10 142 -13 23 -62 26 -84 3z"/>
<path d="M6874 7925 c-12 -18 -14 -32 -8 -45 11 -22 210 -210 223 -210 13 0
41 46 41 67 0 10 -44 62 -98 116 -105 104 -129 116 -158 72z"/>
<path d="M7924 7848 c-59 -58 -94 -99 -94 -113 0 -24 26 -65 42 -65 11 0 218
193 231 217 13 22 -20 53 -56 53 -24 0 -48 -18 -123 -92z"/>
<path d="M2660 7895 c-30 -8 -87 -31 -127 -50 -151 -74 -325 -312 -393 -537
-31 -102 -129 -235 -212 -287 -117 -74 -380 -305 -419 -367 -27 -44 -29 -125
-6 -171 20 -37 70 -81 103 -89 14 -4 51 -4 83 -2 46 3 67 11 102 36 64 47 276
278 344 375 32 45 89 112 126 149 66 63 73 68 181 102 112 35 165 63 309 164
72 49 143 126 202 217 37 56 66 145 78 240 23 184 24 168 -7 204 -26 32 -30
33 -78 27 -65 -9 -66 -9 -156 -2 -52 4 -92 1 -130 -9z m214 -108 c12 -8 27
-25 34 -39 13 -24 11 -28 -50 -85 -35 -33 -85 -80 -113 -104 -27 -24 -52 -47
-55 -50 -9 -11 -375 -315 -389 -323 -15 -9 12 36 42 69 9 11 53 65 97 121 87
111 245 266 325 320 55 36 91 71 83 79 -10 10 -129 -38 -186 -74 -110 -72
-237 -205 -364 -382 -48 -67 -58 -77 -58 -56 0 45 45 153 101 243 128 206 285
310 448 299 35 -2 73 -11 85 -18z m43 -181 c-7 -74 -38 -129 -121 -215 -102
-105 -280 -219 -408 -260 -90 -29 -70 -4 82 104 164 117 338 275 405 369 22
30 42 56 44 56 2 0 1 -24 -2 -54z m-681 -481 c15 -23 15 -27 0 -49 -22 -35
-79 -76 -104 -76 -42 0 -25 56 36 123 32 34 47 34 68 2z m-156 -252 c0 -5 -82
-94 -183 -198 -172 -177 -185 -189 -219 -189 -72 0 -110 75 -69 133 22 31 193
183 266 236 22 16 60 47 84 69 l44 39 39 -41 c21 -23 38 -45 38 -49z"/>
<path d="M1682 6638 c-22 -22 -15 -67 12 -80 29 -13 51 -6 65 21 19 35 -49 87
-77 59z"/>
<path d="M7358 7706 c-159 -46 -272 -217 -255 -386 15 -137 87 -252 190 -301
94 -44 156 -55 237 -41 218 37 343 194 327 409 -10 133 -83 233 -217 296 -54
26 -79 32 -150 34 -50 1 -104 -3 -132 -11z m248 -121 c92 -45 146 -132 146
-237 0 -231 -294 -355 -457 -192 -85 85 -106 221 -50 323 71 128 223 173 361
106z"/>
<path d="M8020 7397 c-16 -8 -26 -23 -28 -40 -6 -52 8 -57 152 -57 72 0 136 4
142 8 24 16 33 48 21 73 -12 23 -16 24 -137 27 -86 1 -133 -2 -150 -11z"/>
<path d="M6666 7384 c-19 -18 -21 -55 -4 -72 8 -8 56 -12 149 -12 145 0 169 7
169 50 0 49 -3 50 -155 50 -117 0 -146 -3 -159 -16z"/>
<path d="M3034 7371 c-43 -11 -52 -18 -71 -54 -14 -26 -17 -63 -18 -195 -1
-89 -4 -163 -6 -165 -152 -105 -212 -197 -234 -358 -20 -138 77 -332 200 -405
79 -46 193 -67 295 -53 275 38 446 357 324 606 -14 30 -59 89 -100 131 l-74
77 0 165 c0 177 -5 198 -52 233 -22 17 -46 21 -130 23 -57 2 -117 0 -134 -5z
m208 -282 c3 -190 3 -191 28 -210 92 -72 121 -104 151 -164 30 -61 31 -69 27
-153 -3 -76 -9 -100 -36 -155 -57 -115 -146 -170 -276 -171 -74 -1 -87 2 -144
33 -75 41 -125 94 -159 168 -55 120 -8 298 102 387 28 23 64 51 80 63 l30 21
5 179 5 178 55 6 c30 3 72 6 92 7 l37 2 3 -191z"/>
<path d="M6978 6924 c-62 -58 -115 -113 -116 -121 -5 -19 36 -63 57 -63 21 0
231 210 231 231 0 15 -20 37 -47 53 -8 4 -56 -34 -125 -100z"/>
<path d="M7846 7009 c-14 -11 -26 -25 -26 -29 0 -5 28 -42 63 -81 34 -40 77
-90 95 -113 19 -23 40 -45 48 -49 20 -11 49 8 64 42 12 30 11 32 -69 117 -44
48 -81 91 -81 95 0 7 -52 39 -63 39 -2 0 -16 -9 -31 -21z"/>
<path d="M6224 6962 c-38 -25 -39 -91 -1 -117 46 -33 97 -3 97 55 0 46 -61 86
-96 62z"/>
<path d="M3734 6915 c-51 -51 -9 -129 59 -111 36 9 63 60 48 93 -10 21 -46 43
-72 43 -5 0 -21 -11 -35 -25z"/>
<path d="M7442 6867 c-6 -7 -14 -54 -18 -105 -6 -76 -4 -95 10 -117 19 -28 57
-33 76 -10 20 24 20 223 0 235 -21 14 -56 12 -68 -3z"/>
<path d="M6378 6707 c-87 -25 -180 -107 -220 -195 -27 -60 -27 -178 1 -252 25
-68 95 -140 166 -171 71 -32 210 -33 278 -1 80 36 123 77 159 150 32 64 33 71
33 187 -1 144 -14 180 -70 191 -19 3 -38 10 -41 15 -2 5 -34 25 -70 45 -75 42
-157 53 -236 31z m161 -99 l51 -11 -54 -48 c-35 -32 -61 -66 -76 -101 l-22
-52 -25 29 c-56 66 -72 83 -94 98 l-23 17 28 29 c45 47 122 61 215 39z m165
-166 c18 -108 -32 -215 -121 -257 -74 -35 -200 -27 -238 15 -20 22 -17 23 64
44 72 18 107 40 150 95 36 45 38 56 14 70 -16 9 -16 11 2 31 25 27 85 60 105
57 10 -1 18 -21 24 -55z m-372 -19 c25 -57 29 -166 7 -189 -24 -23 -52 -5 -80
53 -32 66 -32 143 0 177 29 31 45 22 73 -41z"/>
<path d="M3745 6235 c-53 -52 -12 -145 64 -145 44 0 66 13 81 50 35 84 -81
160 -145 95z"/>
<path d="M7670 6143 c-11 -16 -50 -54 -87 -85 -106 -92 -185 -211 -200 -302
-14 -86 111 -244 247 -314 93 -48 113 -50 196 -22 118 40 268 151 300 222 16
35 16 46 5 101 -19 91 -47 149 -94 194 -77 74 -296 233 -322 233 -14 0 -32
-11 -45 -27z m129 -134 c177 -120 221 -178 221 -289 l0 -63 -62 -63 c-52 -51
-74 -65 -122 -79 -92 -27 -144 -17 -229 41 -57 40 -78 61 -99 104 -35 67 -35
97 -1 168 26 55 183 232 206 232 6 0 44 -23 86 -51z"/>
<path d="M2190 6071 c-673 -7 -637 -3 -680 -74 -19 -31 -20 -55 -20 -618 0
-325 -5 -644 -11 -718 -13 -166 -5 -205 61 -299 52 -74 63 -82 115 -82 l34 0
3 -111 3 -111 75 50 c41 28 88 64 104 81 l29 30 69 -62 c64 -58 103 -86 120
-87 4 0 9 46 10 103 l3 102 365 3 c201 1 374 4 386 7 11 2 26 16 32 30 13 29
1 63 -43 124 -33 44 -47 98 -34 123 6 11 24 32 40 46 17 16 34 43 39 65 13 61
11 1362 -3 1381 -7 8 -30 17 -52 19 -22 2 -312 1 -645 -2z m-501 -729 l3 -629
-43 -11 c-23 -6 -46 -9 -49 -7 -8 5 -2 1182 6 1232 5 31 16 39 59 42 20 1 20
-6 24 -627z m1101 -4 l0 -628 -112 0 c-62 1 -285 -2 -494 -5 l-382 -5 -6 73
c-3 39 -5 323 -5 629 l0 557 22 3 c12 2 237 3 500 4 l477 1 0 -629z m-73 -744
c30 -4 31 -6 22 -36 -9 -34 2 -102 27 -149 l15 -29 -336 0 -335 0 0 110 0 109
108 3 c136 4 457 -1 499 -8z m-1025 -84 c4 -47 4 -93 1 -103 -8 -28 -34 -16
-70 31 -27 36 -33 53 -33 92 0 47 2 50 33 59 58 17 61 14 69 -79z m311 -72 c4
-89 4 -164 1 -167 -3 -3 -25 17 -49 44 l-43 50 -59 -60 -58 -59 -3 38 c-2 20
1 68 7 106 6 38 11 101 11 139 l0 71 93 0 94 0 6 -162z"/>
<path d="M2284 5675 c10 -8 23 -12 28 -9 14 9 -2 24 -25 24 -21 -1 -21 -1 -3
-15z"/>
<path d="M2580 5439 c0 -5 5 -7 10 -4 6 3 10 8 10 11 0 2 -4 4 -10 4 -5 0 -10
-5 -10 -11z"/>
<path d="M1964 5425 c-9 -22 1 -29 15 -11 8 10 9 16 1 21 -5 3 -13 -1 -16 -10z"/>
<path d="M2142 5408 c-17 -17 -15 -65 4 -72 52 -20 101 16 72 52 -27 35 -54
42 -76 20z"/>
<path d="M2630 5405 c-7 -9 -10 -18 -7 -21 3 -3 10 4 17 15 13 25 8 27 -10 6z"/>
<path d="M2280 5366 c0 -19 3 -37 8 -40 4 -2 6 13 4 35 -5 48 -12 51 -12 5z"/>
<path d="M2067 5342 c3 -12 9 -25 14 -28 14 -8 11 10 -6 32 -13 18 -14 18 -8
-4z"/>
<path d="M2570 5339 c0 -5 5 -7 10 -4 6 3 10 8 10 11 0 2 -4 4 -10 4 -5 0 -10
-5 -10 -11z"/>
<path d="M6870 5950 c-21 -21 -27 -55 -11 -64 5 -4 32 -1 60 6 38 8 51 16 51
29 0 46 -64 65 -100 29z"/>
<path d="M5036 5904 c-28 -28 -16 -94 19 -108 9 -3 29 1 46 9 23 13 29 22 29
50 0 39 -22 65 -55 65 -13 0 -31 -7 -39 -16z"/>
<path d="M3151 5891 c-40 -40 -13 -111 43 -111 28 0 56 33 56 65 0 52 -64 81
-99 46z"/>
<path d="M4055 5814 c-109 -9 -220 -26 -308 -48 -119 -31 -295 -110 -377 -170
-70 -51 -85 -80 -74 -143 6 -31 5 -33 -24 -33 -51 0 -130 -20 -154 -39 l-22
-18 3 -1029 c1 -601 6 -1044 12 -1065 13 -52 62 -114 113 -144 l44 -26 499 -5
c274 -3 597 -1 718 4 l220 10 85 -34 c178 -69 342 -66 506 8 l49 22 750 -3
c825 -4 794 -6 847 57 61 73 59 15 56 1167 l-3 1050 -45 23 c-29 14 -62 22
-97 22 l-53 0 0 44 c0 65 -14 92 -66 129 -183 129 -406 199 -695 218 -362 24
-679 -53 -909 -220 -36 -27 -71 -51 -78 -55 -8 -5 -34 12 -71 46 -102 95 -295
176 -506 213 -83 14 -334 25 -420 19z m390 -129 c135 -19 203 -38 301 -84 89
-42 144 -77 213 -138 l44 -39 -1 -963 c-1 -530 -4 -966 -7 -969 -3 -4 -14 -1
-23 6 -170 119 -473 202 -742 202 -265 0 -580 -65 -764 -157 -37 -19 -69 -33
-70 -31 0 2 0 446 2 988 l3 985 47 32 c122 83 262 134 448 162 159 24 407 27
549 6z m1673 4 c134 -14 257 -42 348 -79 85 -34 205 -109 229 -143 13 -19 15
-144 15 -989 0 -533 -2 -968 -4 -968 -3 0 -37 18 -78 39 -95 51 -274 106 -418
128 -141 22 -450 24 -555 5 -176 -33 -398 -110 -494 -172 l-61 -40 0 979 0
979 57 51 c102 91 300 175 473 200 41 6 86 13 100 15 57 8 297 5 388 -5z
m-2829 -1379 c-1 -771 1 -1014 10 -1023 13 -13 218 -15 931 -7 l445 5 46 -22
c63 -32 103 -29 186 12 57 28 83 35 130 35 65 0 154 -23 193 -49 14 -9 38 -23
55 -30 l30 -13 -23 -19 c-34 -27 -174 -69 -231 -69 -58 0 -186 32 -255 63 -47
22 -58 23 -126 15 -41 -5 -368 -8 -727 -6 l-652 3 -40 39 c-24 24 -43 52 -46
70 -3 17 -6 473 -7 1013 l-3 982 30 4 c17 2 36 5 43 5 11 2 13 -177 11 -1008z
m3605 -5 c-3 -1087 0 -1037 -57 -1079 -28 -21 -37 -21 -415 -19 -213 1 -534 2
-713 2 -292 1 -328 3 -333 17 -10 27 11 42 85 59 61 13 101 14 307 5 373 -16
1019 -17 1034 -2 10 10 13 223 14 995 1 540 2 992 3 1005 1 19 7 22 39 22 l38
0 -2 -1005z m-704 -736 c189 -31 395 -100 492 -164 59 -39 50 -47 -49 -41 -49
3 -212 11 -363 16 -151 6 -291 13 -310 15 -19 3 -101 10 -182 15 -171 12 -268
4 -391 -36 -77 -24 -219 -36 -235 -19 -13 13 61 70 143 110 124 61 328 112
510 129 76 7 270 -5 385 -25z m-1757 6 c59 -8 147 -24 195 -36 106 -27 267
-98 307 -135 l30 -28 -45 -9 c-25 -5 -53 -13 -62 -18 -31 -16 -74 -10 -139 21
-35 16 -93 34 -129 39 -80 13 -326 14 -401 2 -138 -23 -621 -52 -727 -44 l-73
6 23 24 c63 68 291 139 568 178 128 18 321 18 453 0z"/>
<path d="M7240 5211 c0 -20 158 -241 172 -241 17 0 -21 130 -55 187 -10 19
-32 40 -48 48 -32 17 -69 20 -69 6z"/>
<path d="M7563 5190 c-17 -7 -23 -18 -23 -39 0 -39 12 -45 38 -21 12 11 32 20
44 19 13 -1 79 -2 148 -3 108 -1 125 1 128 15 2 13 -12 19 -73 28 -113 16
-181 15 -189 -5 -6 -16 -8 -16 -24 0 -21 18 -19 18 -49 6z"/>
<path d="M8302 4607 c-49 -52 -12 -127 62 -127 45 0 86 36 86 75 0 66 -102
102 -148 52z"/>
<path d="M7262 4584 c-38 -26 -25 -76 27 -103 33 -18 75 13 79 60 6 54 -55 79
-106 43z"/>
<path d="M7684 4400 c-143 -37 -248 -105 -330 -212 -105 -140 -149 -283 -142
-465 6 -153 37 -234 144 -380 12 -16 13 -26 5 -41 -22 -41 -41 -52 -79 -47
-36 5 -39 3 -112 -87 -41 -50 -108 -134 -149 -187 l-73 -95 4 -68 c3 -64 6
-71 44 -109 49 -49 102 -64 169 -49 25 6 55 16 66 23 12 6 86 85 165 175 140
159 144 164 138 200 -5 32 -2 41 25 66 l30 28 73 -18 c100 -24 290 -25 373 0
215 63 351 196 436 424 29 77 32 99 33 192 1 127 -13 188 -69 305 -64 134
-157 230 -278 290 -152 75 -323 95 -473 55z m287 -95 c159 -34 309 -145 374
-280 42 -85 70 -217 62 -292 -14 -131 -89 -287 -183 -378 -93 -91 -261 -151
-399 -143 -276 16 -495 240 -512 523 -9 149 50 326 142 424 54 58 174 124 255
140 30 6 64 13 75 15 45 9 118 5 186 -9z m-500 -1067 c22 -12 39 -24 39 -27
-1 -15 -40 -51 -55 -51 -19 0 -48 62 -39 84 8 20 9 20 55 -6z m-103 -142 l56
-54 -71 -83 c-111 -131 -186 -199 -221 -199 -26 0 -56 23 -76 58 -8 13 87 152
179 262 25 30 45 58 45 62 0 22 38 2 88 -46z"/>
<path d="M7732 4214 c-69 -18 -85 -27 -159 -87 -114 -92 -173 -211 -173 -351
0 -137 41 -238 136 -339 245 -258 675 -130 769 228 41 158 -7 319 -127 431
-80 73 -129 100 -220 118 -93 19 -156 19 -226 0z m280 -121 c69 -33 129 -87
158 -143 104 -204 35 -418 -169 -517 -49 -24 -68 -28 -146 -28 -82 0 -97 3
-157 33 -79 39 -130 92 -171 181 -27 57 -32 77 -32 146 0 67 4 89 28 136 51
105 144 190 235 216 76 21 178 11 254 -24z"/>
<path d="M2744 4005 c-29 -30 -30 -54 -3 -89 25 -32 66 -34 97 -6 28 27 28 61
0 87 -37 33 -67 35 -94 8z"/>
<path d="M1572 3978 c-7 -7 -12 -25 -12 -40 0 -21 8 -33 33 -48 17 -11 39 -20
48 -20 23 0 71 54 63 73 -15 40 -104 63 -132 35z"/>
<path d="M2065 3852 c-110 -37 -185 -84 -261 -164 -123 -131 -188 -325 -164
-498 19 -141 55 -220 166 -365 88 -115 96 -152 98 -405 1 -210 2 -216 26 -260
21 -38 37 -51 105 -85 77 -39 83 -40 180 -40 97 0 104 2 178 38 64 32 81 46
103 84 27 44 27 49 30 242 3 232 17 294 85 376 127 153 181 257 205 396 13 74
14 107 5 171 -13 96 -48 201 -93 275 -127 211 -424 317 -663 235z m255 -82
c268 -42 454 -325 396 -600 -21 -100 -55 -165 -150 -290 -83 -109 -120 -182
-131 -262 l-7 -48 -78 0 -78 0 -7 163 c-8 196 0 297 24 297 55 1 182 97 207
157 18 43 18 49 -6 73 -23 23 -68 26 -95 6 -16 -11 -17 -17 -7 -29 19 -23 5
-43 -59 -86 l-59 -39 0 65 c0 73 -16 103 -56 103 -35 0 -54 -36 -54 -102 0
-32 -3 -58 -6 -58 -4 0 -21 9 -39 20 -35 22 -61 70 -51 95 8 22 -37 49 -69 41
-34 -9 -49 -48 -35 -91 17 -50 109 -132 164 -146 l46 -11 0 -229 0 -229 -79 0
c-87 0 -91 3 -91 65 0 76 -38 159 -124 275 -116 155 -131 198 -130 365 0 111
3 138 23 188 49 124 158 232 280 278 103 39 166 45 271 29z m110 -1343 l0 -44
-112 -6 c-62 -4 -157 -7 -210 -7 l-98 0 0 50 0 50 210 0 210 0 0 -43z m-10
-178 c-12 -42 -24 -54 -74 -78 -62 -30 -174 -29 -241 3 -54 25 -79 48 -89 84
l-7 22 210 0 210 0 -9 -31z"/>
<path d="M8250 2950 c-41 -41 -19 -78 50 -87 64 -9 91 33 54 85 -20 29 -76 30
-104 2z"/>
<path d="M3754 2815 c-33 -50 -127 -281 -128 -314 -1 -29 3 -35 26 -42 30 -8
42 1 51 42 6 24 13 27 68 33 67 8 80 2 99 -44 20 -47 88 -37 77 11 -12 53
-118 294 -139 316 -27 29 -34 29 -54 -2z m46 -145 c0 -10 5 -22 10 -25 24 -15
9 -35 -25 -35 -40 0 -44 13 -20 61 17 31 35 31 35 -1z"/>
<path d="M5051 2831 c-21 -13 -7 -76 45 -210 57 -146 66 -161 104 -161 34 0
28 -11 109 203 29 76 50 144 48 151 -3 7 -17 16 -32 18 -24 5 -28 0 -56 -61
-17 -36 -37 -88 -46 -114 -8 -26 -20 -46 -25 -45 -5 2 -24 42 -42 90 -49 129
-68 152 -105 129z"/>
<path d="M6432 2827 c-17 -22 -22 -95 -16 -227 l7 -130 34 0 33 0 0 90 c0 50
4 90 9 90 4 0 36 -33 71 -72 87 -101 106 -117 128 -111 24 6 32 70 32 244 l0
119 -39 0 -40 0 -5 -52 c-4 -29 -7 -73 -9 -98 l-2 -45 -83 97 c-88 101 -104
115 -120 95z"/>
<path d="M3268 2824 c-5 -4 -8 -88 -8 -186 l0 -178 101 0 101 0 39 39 c48 48
53 94 14 131 l-24 23 19 25 c29 36 25 67 -14 109 -33 37 -34 37 -127 41 -52 2
-97 1 -101 -4z m172 -97 c0 -33 -19 -47 -62 -47 -37 0 -38 1 -38 35 l0 35 50
0 c46 0 50 -2 50 -23z m4 -123 c9 -3 16 -17 16 -30 0 -29 -37 -47 -84 -42 -28
3 -31 7 -34 41 l-3 37 45 0 c24 0 51 -3 60 -6z"/>
<path d="M4071 2813 c-30 -15 -61 -62 -61 -92 0 -23 67 -84 122 -112 42 -21
58 -35 56 -47 -4 -23 -70 -29 -88 -8 -7 9 -20 16 -30 16 -23 0 -54 -36 -46
-55 8 -23 84 -55 130 -55 31 0 45 7 77 39 71 71 46 148 -61 186 -44 16 -60 29
-60 53 0 17 39 15 75 -4 29 -15 30 -14 52 13 28 34 28 35 3 58 -29 27 -124 31
-169 8z"/>
<path d="M4374 2817 c-2 -7 -3 -87 -2 -177 l3 -164 30 -8 c51 -13 54 -2 48
190 l-6 172 -34 0 c-18 0 -36 -6 -39 -13z"/>
<path d="M4613 2810 c-57 -34 -69 -89 -32 -141 23 -32 86 -69 119 -69 25 0 37
-25 20 -45 -18 -21 -63 -19 -93 5 l-25 20 -27 -32 c-26 -31 -26 -32 -8 -46 81
-63 188 -53 233 21 44 71 9 131 -93 161 -61 18 -78 36 -57 61 17 20 37 19 68
-5 l25 -21 29 28 c15 15 28 30 28 35 0 5 -15 17 -32 28 -43 26 -113 26 -155 0z"/>
<path d="M5445 2768 c-3 -35 -5 -115 -3 -178 l3 -115 37 -3 36 -3 7 53 c3 29
5 109 3 178 l-3 125 -37 3 -36 3 -7 -63z"/>
<path d="M5642 2648 l3 -183 70 -3 c96 -4 147 12 190 60 20 21 40 50 45 64 28
73 -5 156 -81 208 -52 35 -57 36 -142 36 l-87 0 2 -182z m201 52 c60 -67 15
-150 -80 -150 l-46 0 7 46 c3 26 6 69 6 97 l0 50 43 -6 c30 -4 50 -14 70 -37z"/>
<path d="M6070 2661 c0 -93 3 -176 6 -185 5 -13 25 -16 120 -16 l114 0 0 40 0
40 -80 0 -80 0 0 35 0 35 70 0 70 0 0 40 0 40 -75 0 c-78 0 -84 4 -69 44 5 12
20 16 63 16 87 0 101 7 101 46 l0 34 -120 0 -120 0 0 -169z"/>
<path d="M2852 2734 c-28 -20 -28 -56 1 -88 32 -36 67 -42 100 -16 56 44 25
120 -48 120 -17 0 -41 -7 -53 -16z"/>
<path d="M1555 2690 c-16 -18 -16 -21 -2 -44 22 -33 52 -41 82 -22 27 18 33
54 13 74 -19 19 -73 14 -93 -8z"/>
<path d="M7201 2405 c-85 -27 -128 -95 -118 -187 16 -133 139 -201 239 -132
44 31 47 47 13 70 -24 15 -27 15 -44 0 -52 -47 -131 7 -131 90 0 79 55 112
137 82 28 -10 36 -10 50 5 46 46 -61 99 -146 72z"/>
<path d="M7615 2401 c-3 -2 -5 -30 -5 -62 0 -63 -7 -69 -82 -69 l-37 0 -3 63
c-3 62 -3 62 -35 65 l-33 3 0 -159 c0 -168 5 -188 47 -180 15 3 19 15 21 64
l3 61 46 7 c73 10 73 10 73 -33 0 -21 3 -53 6 -70 5 -26 11 -31 34 -31 16 0
30 7 34 16 3 9 6 85 6 169 l0 153 -35 4 c-20 2 -38 2 -40 -1z"/>
<path d="M7803 2403 l-43 -4 0 -160 c0 -119 3 -161 13 -164 6 -3 55 -6 107 -7
l95 -3 3 38 3 37 -75 0 -76 0 0 30 0 30 65 0 65 0 0 35 0 35 -65 0 -65 0 0 35
0 35 59 0 c72 0 91 6 91 31 0 36 -44 44 -177 32z"/>
<path d="M8070 2401 l-25 -7 -2 -149 c-2 -83 0 -155 5 -161 4 -7 21 -14 37
-15 30 -4 30 -3 38 58 l9 62 61 3 c50 2 62 6 65 21 7 33 -17 47 -79 47 l-59 0
0 40 c0 40 0 40 38 40 20 0 54 3 75 7 34 5 38 9 35 32 -3 26 -4 26 -88 28 -47
1 -96 -2 -110 -6z"/>
<path d="M2834 2379 c-62 -24 -136 -94 -171 -163 -21 -41 -26 -66 -27 -126 -1
-66 3 -84 32 -142 54 -111 150 -171 271 -170 230 3 372 194 307 415 -46 159
-247 250 -412 186z m169 -80 c83 -23 146 -112 148 -210 4 -183 -211 -277 -344
-151 -44 41 -60 81 -61 147 -1 98 55 176 150 210 48 17 59 18 107 4z"/>
<path d="M5843 1958 c-4 -7 -9 -55 -11 -105 l-4 -93 35 0 c53 0 85 16 107 52
24 39 25 69 5 107 -21 42 -113 69 -132 39z m94 -74 c8 -23 -14 -63 -39 -73
-13 -5 -25 -7 -27 -5 -9 9 1 99 12 106 14 8 46 -8 54 -28z"/>
<path d="M3840 1860 l0 -100 60 0 c53 0 61 3 76 25 14 21 15 31 6 50 -6 14 -9
39 -5 55 9 48 -18 70 -84 70 l-53 0 0 -100z m93 54 c12 -12 -6 -34 -29 -34
-17 0 -24 6 -24 20 0 14 7 20 23 20 13 0 26 -3 30 -6z m5 -91 c3 -20 -1 -23
-27 -23 -27 0 -31 4 -31 26 0 22 4 25 28 22 19 -2 28 -9 30 -25z"/>
<path d="M4378 1943 c-31 -36 -31 -60 1 -82 16 -12 33 -21 39 -21 5 0 15 -7
22 -15 18 -22 -2 -44 -24 -26 -8 7 -27 11 -43 9 l-28 -3 29 -27 c34 -33 68
-36 96 -8 34 34 26 67 -25 98 -52 32 -53 48 -1 44 25 -2 36 1 36 11 0 37 -74
52 -102 20z"/>
<path d="M4600 1855 c0 -98 1 -105 20 -105 19 0 20 7 20 105 0 98 -1 105 -20
105 -19 0 -20 -7 -20 -105z"/>
<path d="M4772 1948 c-28 -36 -23 -54 23 -87 25 -18 45 -38 45 -46 0 -17 -23
-25 -41 -14 -21 13 -39 11 -39 -6 0 -21 45 -48 68 -41 10 4 29 17 42 31 20 22
21 27 11 54 -7 16 -26 35 -42 42 -37 15 -33 33 9 37 18 2 32 7 32 12 0 27 -89
41 -108 18z"/>
<path d="M5152 1948 c-18 -18 -15 -36 7 -48 26 -14 31 -13 31 6 0 19 20 14 34
-9 9 -15 4 -24 -31 -53 -33 -27 -43 -43 -43 -65 l0 -29 65 0 c77 0 90 22 25
41 l-40 12 40 34 c45 39 53 78 22 106 -22 20 -92 23 -110 5z"/>
<path d="M5431 1934 c-12 -15 -26 -45 -33 -66 -15 -50 1 -85 52 -110 40 -21
62 -11 95 40 11 17 23 31 26 32 4 0 18 -18 33 -40 30 -45 53 -50 83 -17 50 54
52 103 8 151 -19 21 -34 26 -69 26 -52 0 -55 -18 -7 -37 16 -6 37 -22 46 -37
16 -24 16 -28 1 -52 -26 -39 -45 -41 -72 -8 -13 16 -23 37 -24 46 0 11 -5 15
-14 12 -9 -3 -15 6 -20 27 -8 44 -23 59 -56 59 -19 0 -36 -9 -49 -26z m79 -24
c5 0 12 -16 16 -35 10 -55 -40 -97 -74 -63 -29 29 1 117 36 103 7 -3 18 -5 22
-5z"/>
<path d="M6083 1944 c-4 -11 4 -25 25 -43 18 -14 32 -31 32 -36 0 -6 -13 -26
-30 -45 -33 -39 -37 -58 -16 -66 9 -3 27 8 44 28 30 32 30 33 51 14 12 -11 21
-27 21 -38 0 -20 8 -22 30 -8 13 8 13 12 1 32 -48 77 -47 73 -18 115 15 21 27
44 27 51 0 20 -38 14 -45 -7 -3 -11 -13 -25 -21 -32 -13 -11 -19 -8 -41 19
-27 35 -50 41 -60 16z"/>
<path d="M4135 1919 c-14 -25 -44 -144 -45 -171 0 -21 27 -4 37 22 10 26 16
30 47 30 29 0 37 -4 42 -24 7 -28 32 -42 40 -22 5 12 -14 70 -56 174 -14 32
-46 28 -65 -9z m43 -46 c10 -31 10 -33 -14 -33 -27 0 -29 6 -14 46 12 31 13
30 28 -13z"/>
</g>
</svg>
